<?xml version="1.0" encoding="UTF-8" standalone="no"?>
<!-- Created with Inkscape (http://www.inkscape.org/) -->

<svg
   xmlns:dc="http://purl.org/dc/elements/1.1/"
   xmlns:cc="http://creativecommons.org/ns#"
   xmlns:rdf="http://www.w3.org/1999/02/22-rdf-syntax-ns#"
   xmlns:svg="http://www.w3.org/2000/svg"
   xmlns="http://www.w3.org/2000/svg"
   xmlns:sodipodi="http://sodipodi.sourceforge.net/DTD/sodipodi-0.dtd"
   xmlns:inkscape="http://www.inkscape.org/namespaces/inkscape"
   width="1024"
   height="1024"
   id="svg2"
   version="1.1"
   inkscape:version="0.48.4 r9939"
   sodipodi:docname="Tree.svg"
   inkscape:export-filename="C:\Users\Paddel\Desktop\Sourcen\Dropbox\#Mod-Base(RPG)\data\mapres\tree.png"
   inkscape:export-xdpi="90"
   inkscape:export-ydpi="90">
  <defs
     id="defs4">
    <filter
       inkscape:collect="always"
       id="filter3992"
       x="-0.094023191"
       width="1.1880464"
       y="-0.22144268"
       height="1.4428854">
      <feGaussianBlur
         inkscape:collect="always"
         stdDeviation="2.1106255"
         id="feGaussianBlur3994" />
    </filter>
  </defs>
  <sodipodi:namedview
     id="base"
     pagecolor="#ffffff"
     bordercolor="#666666"
     borderopacity="1.0"
     inkscape:pageopacity="0.0"
     inkscape:pageshadow="2"
     inkscape:zoom="1"
     inkscape:cx="275.52722"
     inkscape:cy="849.46625"
     inkscape:document-units="px"
     inkscape:current-layer="layer1"
     showgrid="true"
     inkscape:snap-bbox="true"
     showguides="true"
     inkscape:guide-bbox="true"
     inkscape:snap-global="true"
     inkscape:window-width="1920"
     inkscape:window-height="1018"
     inkscape:window-x="-8"
     inkscape:window-y="-8"
     inkscape:window-maximized="1">
    <inkscape:grid
       type="xygrid"
       id="grid2985"
       empspacing="5"
       visible="true"
       enabled="true"
       snapvisiblegridlinesonly="true"
       spacingx="64px"
       spacingy="64px" />
  </sodipodi:namedview>
  <metadata
     id="metadata7">
    <rdf:RDF>
      <cc:Work
         rdf:about="">
        <dc:format>image/svg+xml</dc:format>
        <dc:type
           rdf:resource="http://purl.org/dc/dcmitype/StillImage" />
        <dc:title></dc:title>
      </cc:Work>
    </rdf:RDF>
  </metadata>
  <g
     inkscape:label="Ebene 1"
     inkscape:groupmode="layer"
     id="layer1"
     transform="translate(0,-28.362168)">
    <path
       style="fill:#a16e36;fill-opacity:1"
       d="m 630.62499,314.61217 c -2.0133,2.81831 -3.3931,5.98516 -4.8437,9.125 -2.77679,0.37801 -4.75287,-0.0671 -7.00005,-0.21875 -2.28036,2.62851 -2.72581,6.16528 -3.59375,9.5 -3.4112,-0.29713 -6.80755,-1.62335 -10.21875,-3.5 -2.06894,1.56162 -4.12717,3.29294 -6.03125,5.84375 -2.21426,-0.34575 -4.04208,-1.34629 -5.9375,-2.25 -0.4894,1.04839 -1.27573,1.2928 -2.09375,1.4375 -2.13211,-2.08306 -3.62469,-4.54917 -4.53125,-7.40625 -1.7563,3.31002 -10.41584,10.02686 -10.41919,9.10954 l 0.0442,12.10921 64,0 0,-30.96875 c -3.5297,-0.31654 -6.2923,-1.79478 -9.375,-2.78125 z"
       id="rect3825"
       inkscape:connector-curvature="0"
       sodipodi:nodetypes="cccccccccscccc" />
    <path
       sodipodi:nodetypes="ccccscccc"
       inkscape:connector-curvature="0"
       id="path3996"
       d="m 598.93749,335.36217 c -2.21426,-0.34575 -4.04208,-1.34629 -5.9375,-2.25 -0.4894,1.04839 -1.27573,1.2928 -2.09375,1.4375 -2.13211,-2.08306 -3.62469,-4.54917 -4.53125,-7.40625 -1.7563,3.31002 -10.41584,10.02686 -10.41919,9.10954 l 0.0207,5.66795 c 5.17495,0.74309 8.63858,-1.16945 12.87953,-0.91217 3.88787,-0.2562 10.4839,-1.29889 10.08147,-5.64657 z"
       style="fill:#835a26;fill-opacity:1" />
    <path
       style="fill:#593100;fill-opacity:1;fill-rule:evenodd;stroke:none"
       d="M 450.00112,46.497744 C 424.30706,140.11496 422.64533,235.03309 449.94302,331.47541 473.61109,237.49829 472.2464,142.031 450.00112,46.497744 z"
       id="path3827"
       inkscape:connector-curvature="0" />
    <path
       sodipodi:nodetypes="cccsccccc"
       inkscape:connector-curvature="0"
       id="path4011"
       d="m 255.99999,336.31146 c 3.64906,-0.37944 7.28852,-0.67241 10.70663,1.02675 5.53574,0.82598 8.37768,-1.04185 11.93456,-2.19473 3.70804,9.6e-4 7.14802,-0.77619 9.42161,0.68388 6.19987,3.98147 6.21609,1.33862 8.9674,2.07509 6.17353,0.0124 11.82011,0.21645 22.99823,-1.59099 l 0,12.05071 -64.02843,0 z"
       style="fill:#a16e36;fill-opacity:1" />
    <path
       sodipodi:nodetypes="ccccccccccccccccccccccccccccccccccccccccccccccccccc"
       inkscape:connector-curvature="0"
       id="path3806"
       d="m 165.69271,28.361872 -11.25059,5.663645 -15.56334,-3.738006 -10.87557,4.870736 -17.12589,-6.569826 -13.313215,7.81583 -14.000743,-4.1911 -19.563537,2.831825 0,152.805124 0,1.81237 0,152.80511 9.000479,2.26547 6.375337,-3.39817 5.562794,5.66363 8.500453,-4.87072 8.812952,5.66362 11.43811,-6.11672 7.81293,6.68311 6.50033,-5.89022 15.68834,3.05839 14.68826,-5.4371 15.4383,6.45654 18.18848,-4.09198 14.68828,2.61947 13.93823,-5.32385 9.62553,6.34329 15.93834,-4.984 9.81302,6.00344 17.81345,-6.90965 13.68822,5.77694 14.75077,-7.47603 6.68784,5.55039 5.93783,-4.984 5.06278,3.39815 C 290.54579,238.58 292.33582,136.34239 320.01341,35.498066 l 0,-0.45309 -9.18797,0.679636 -4.75026,-1.812367 -6.62534,1.472547 -7.81292,-2.605277 -7.00036,5.323826 -10.9381,-5.89019 -9.73305,5.341105 -7.95537,-2.498923 -11.25059,-4.541275 -11.87562,4.077825 -7.43792,-3.284914 -17.37593,8.72201 -16.06334,-4.976025 -13.90161,3.27929 z"
       style="fill:#8a4b00;fill-opacity:1;fill-rule:evenodd;stroke:none" />
    <path
       sodipodi:nodetypes="sccccccscccccss"
       inkscape:connector-curvature="0"
       id="path4013"
       d="m 283.87499,334.92467 c -1.6077,0.0117 -3.36473,0.21923 -5.21875,0.21875 -3.55688,1.15288 -6.40176,3.01348 -11.9375,2.1875 -3.41811,-1.69916 -7.06969,-1.41069 -10.71875,-1.03125 l 0,5.5 c 3.47001,0.72137 6.95689,1.39213 10.75381,1.13277 4.18372,-0.0291 7.49937,-1.36027 11.06512,-2.31631 5.83226,-0.0926 9.81712,-0.4574 12.83935,0.9298 2.15503,0.98914 4.66878,1.24908 7.71858,1.36067 4.8081,0.0485 9.52648,0.0283 11.56064,-2.04443 6.19465,-2.17796 7.91672,-0.42005 10.09375,0.9375 l 0,-5.5 c -11.17812,1.80744 -16.82647,1.60615 -23,1.59375 -2.75131,-0.73647 -2.76888,1.91897 -8.96875,-2.0625 -1.1368,-0.73004 -2.5798,-0.91791 -4.1875,-0.90625 z"
       style="fill:#835a26;fill-opacity:1" />
    <path
       style="fill:#804600;fill-opacity:1;fill-rule:evenodd;stroke:none"
       d="m 165.69271,28.361872 -11.25059,5.663645 -8.68797,-2.038912 C 162.60662,95.933143 178.49934,156.05342 182.44361,222.05852 170.86247,158.09866 151.56159,98.196162 133.25349,32.779515 l -5.25028,2.378732 -17.12589,-6.569826 -13.313215,7.81583 -3.562691,-1.019459 c -3.07743,23.681187 -2.197313,49.235785 3.625184,78.384828 -8.458461,-29.753134 -11.1701,-55.859927 -9.375492,-80.197192 l -4.687744,-1.359277 -19.563537,2.831825 0,152.805124 0,1.81237 0,152.80511 7.00037,1.81238 c 16.359593,-38.07584 32.229915,-82.16765 48.877595,-136.94691 -11.15583,53.10438 -24.091355,97.1228 -38.689555,135.8142 l 3.7502,3.85126 8.500453,-4.87072 8.812952,5.66362 11.43811,-6.11672 7.81293,6.68311 6.50033,-5.89022 15.68834,3.05839 14.68826,-5.4371 5.1878,2.15219 c -5.84871,-25.13962 -12.67848,-51.69783 -22.81373,-79.40432 16.81489,28.08595 26.98923,56.24963 35.06435,83.2556 l 16.18836,-3.62476 14.68828,2.60532 13.93823,-5.32385 9.62553,6.34329 15.93834,-4.984 9.81302,6.00344 17.81345,-6.90965 13.68822,5.77694 14.75077,-7.47603 6.68784,5.55039 5.93783,-4.984 5.06278,3.39815 C 290.54579,238.58 292.33582,136.34239 320.01341,35.498066 l 0,-0.45309 -9.18797,0.679636 -4.75026,-1.812367 -6.62534,1.472547 -7.81292,-2.605277 -7.00036,5.323826 -10.9381,-5.89019 -9.75051,5.323829 -7.93791,-2.492004 -11.2506,-4.530918 -11.87561,4.077825 -7.43792,-3.284914 -17.37593,8.72201 -16.06334,-4.984003 -13.87572,3.284912 -12.43816,-9.968016 z"
       id="rect2987"
       inkscape:connector-curvature="0" />
    <path
       style="fill:#d97500;fill-opacity:1;stroke:none"
       d="m -27.326803,60.226291 c -20.83449,48.164079 -35.03443,100.119329 -51.59013,150.728439 l -4.401,-6.06092 c 18.12793,-48.5797 32.46108,-99.68924 55.99113,-144.667519 z"
       id="rect3768"
       inkscape:connector-curvature="0"
       sodipodi:nodetypes="cccc" />
    <path
       style="fill:#8cdb26;fill-opacity:1"
       d="m 640.01089,284.34911 0,30.96469 c -3.8901,-0.15827 -6.7913,-1.80001 -10.0844,-2.85379 -2.0133,2.81831 -3.402,5.99352 -4.8526,9.13336 -2.77679,0.37801 -4.73322,-0.0643 -6.9804,-0.2159 -2.28036,2.62851 -2.73047,6.17214 -3.59841,9.50686 -3.4112,-0.29713 -6.82239,-1.6374 -10.23359,-3.51405 -2.06894,1.56162 -4.11095,3.28483 -6.01503,5.83564 -2.21426,-0.34575 -4.05262,-1.34934 -5.94804,-2.25305 -0.4894,1.04839 -1.2695,1.29734 -2.08752,1.44204 -4.03615,-3.9433 -5.9234,-9.07702 -5.51253,-16.1083 12.75261,-30.57129 23.30959,-26.5998 55.31252,-31.9375 z"
       id="rect3827"
       inkscape:connector-curvature="0"
       sodipodi:nodetypes="cccccccccccc" />
    <path
       inkscape:connector-curvature="0"
       id="path3942"
       d="m 629.91709,312.4741 c -2.0133,2.81831 -3.3931,5.98516 -4.8437,9.125 -2.77679,0.37801 -4.72159,-0.0671 -6.96877,-0.21875 -2.28036,2.62851 -2.75706,6.16528 -3.625,9.5 -3.4112,-0.29713 -6.80755,-1.62335 -10.21875,-3.5 -2.06894,1.56162 -4.09592,3.26169 -6,5.8125 -2.21426,-0.34575 -4.07333,-1.34629 -5.96875,-2.25 -0.4894,1.04839 -1.27573,1.2928 -2.09375,1.4375 -1.79426,-1.75299 -3.13069,-3.74563 -4.0625,-6.03125 0.86942,3.20316 2.45272,5.91254 4.78125,8.1875 0.81802,-0.1447 1.60435,-0.38911 2.09375,-1.4375 1.89542,0.90371 3.72324,1.90425 5.9375,2.25 1.90408,-2.55081 3.96231,-4.28213 6.03125,-5.84375 3.4112,1.87665 6.80755,3.20287 10.21875,3.5 0.86794,-3.33472 1.31339,-6.87149 3.59375,-9.5 2.24718,0.1516 4.22323,0.59676 6.99997,0.21875 1.4506,-3.13984 2.8305,-6.30669 4.8438,-9.125 3.0827,0.98647 5.8453,2.46471 9.375,2.78125 l 0,-2.0625 c -3.8901,-0.15827 -6.8007,-1.78997 -10.0938,-2.84375 z"
       style="fill:#000000;fill-opacity:1;filter:url(#filter3992)"
       transform="translate(0,-1.9999998e-6)" />
    <path
       sodipodi:nodetypes="ccccccccccccscc"
       inkscape:connector-curvature="0"
       id="path3830"
       d="m 640.01089,302.61179 0,12.70201 c -3.8901,-0.15827 -6.7913,-1.80001 -10.0844,-2.85379 -2.0133,2.81831 -3.402,5.99352 -4.8526,9.13336 -2.77679,0.37801 -4.73322,-0.0643 -6.9804,-0.2159 -2.28036,2.62851 -2.73047,6.17214 -3.59841,9.50686 -3.4112,-0.29713 -6.82239,-1.6374 -10.23359,-3.51405 -2.06894,1.56162 -4.11095,3.28483 -6.01503,5.83564 -2.21426,-0.34575 -4.05262,-1.34934 -5.94804,-2.25305 -0.4894,1.04839 -1.2695,1.29734 -2.08752,1.44204 -3.34947,-3.27242 -5.21903,-7.36465 -5.52341,-12.68084 3.1437,1.53195 8.06137,2.20939 14.95115,1.05514 2.40061,-0.59087 5.65819,-0.79047 7.18267,-4.7693 0.84334,-2.20108 3.47963,-3.70327 5.76287,-5.57365 8.43824,-1.10772 15.08661,1.5348 27.42671,-7.81447 z"
       style="fill:#68a421;fill-opacity:1" />
    <path
       style="fill:#3f5221;fill-opacity:1"
       d="m 629.91709,312.4741 c -2.0133,2.81831 -3.3931,5.98516 -4.8437,9.125 -2.77679,0.37801 -4.72159,-0.0671 -6.96877,-0.21875 -2.28036,2.62851 -2.75706,6.16528 -3.625,9.5 -3.4112,-0.29713 -6.80755,-1.62335 -10.21875,-3.5 -2.06894,1.56162 -4.09592,3.26169 -6,5.8125 -2.21426,-0.34575 -4.07333,-1.34629 -5.96875,-2.25 -0.4894,1.04839 -1.27573,1.2928 -2.09375,1.4375 -1.79426,-1.75299 -3.13069,-3.74563 -4.0625,-6.03125 0.86942,3.20316 2.45272,5.91254 4.78125,8.1875 0.81802,-0.1447 1.60435,-0.38911 2.09375,-1.4375 1.89542,0.90371 3.72324,1.90425 5.9375,2.25 1.90408,-2.55081 3.96231,-4.28213 6.03125,-5.84375 3.4112,1.87665 6.80755,3.20287 10.21875,3.5 0.86794,-3.33472 1.31339,-6.87149 3.59375,-9.5 2.24718,0.1516 4.22323,0.59676 6.99997,0.21875 1.4506,-3.13984 2.8305,-6.30669 4.8438,-9.125 3.0827,0.98647 5.8453,2.46471 9.375,2.78125 l 0,-2.0625 c -3.8901,-0.15827 -6.8007,-1.78997 -10.0938,-2.84375 z"
       id="path3834"
       inkscape:connector-curvature="0" />
    <path
       style="fill:#a16e36;fill-opacity:1"
       d="m 511.99999,336.31146 c 3.64906,-0.37944 7.28852,-0.67241 10.70663,1.02675 5.53574,0.82598 8.37768,-1.04185 11.93456,-2.19473 3.70804,9.6e-4 7.14802,-0.77619 9.42161,0.68388 6.19987,3.98147 6.21609,1.33862 8.9674,2.07509 6.17353,0.0124 11.82011,0.21645 22.99823,-1.59099 l 0,12.05071 -64.02843,0 z"
       id="rect3998"
       inkscape:connector-curvature="0"
       sodipodi:nodetypes="cccsccccc" />
    <path
       style="fill:#835a26;fill-opacity:1"
       d="m 539.87499,334.92467 c -1.6077,0.0117 -3.36473,0.21923 -5.21875,0.21875 -3.55688,1.15288 -6.40176,3.01348 -11.9375,2.1875 -3.41811,-1.69916 -7.06969,-1.41069 -10.71875,-1.03125 l 0,5.5 c 3.47001,0.72137 6.95689,1.39213 10.75381,1.13277 4.18372,-0.0291 7.49937,-1.36027 11.06512,-2.31631 5.83226,-0.0926 9.81712,-0.4574 12.83935,0.9298 2.15503,0.98914 4.66878,1.24908 7.71858,1.36067 4.8081,0.0485 9.52648,0.0283 11.56064,-2.04443 6.19465,-2.17796 7.91672,-0.42005 10.09375,0.9375 l 0,-5.5 c -11.17812,1.80744 -16.82647,1.60615 -23,1.59375 -2.75131,-0.73647 -2.76888,1.91897 -8.96875,-2.0625 -1.1368,-0.73004 -2.5798,-0.91791 -4.1875,-0.90625 z"
       id="path4004"
       inkscape:connector-curvature="0"
       sodipodi:nodetypes="sccccccscccccss" />
    <path
       style="fill:#b36100;fill-opacity:1;fill-rule:evenodd;stroke:none"
       d="M 320.09375 7.125 C 292.41617 107.96932 290.62619 210.23744 320.03125 314.125 C 321.01954 310.20087 321.96749 306.27261 322.875 302.34375 C 297.94548 206.73599 299.3291 112.52351 322.875 19.5 C 321.9876 15.378111 321.05362 11.247216 320.09375 7.125 z "
       id="path2999"
       transform="translate(0,28.362168)" />
  </g>
</svg>
